<svg height="80" viewBox="0 0 118 80" width="118" xmlns="http://www.w3.org/2000/svg" xmlns:xlink="http://www.w3.org/1999/xlink">
  <linearGradient id="a" x1="0%" x2="98.359774%" y1="50%" y2="50%">
    <stop offset="0" stop-color="#7724f8"/>
    <stop offset="1" stop-color="#aa73ff"/>
  </linearGradient>
  <path d="m0 80h118v-80h-118zm41.414-21 57-57h16.172l-65.086 65.086zm-9.5-9.5 47.5-47.5h16.172l-55.586 55.585zm28.5-47.5h16.171l-8.085 8.086zm-19 0h16.172l9.5 9.5-8.086 8.086zm-39.414 20.414 20.415-20.414h16.171l-36.586 36.586zm0-20.414h17.586l-17.586 17.586zm67.914 47.5 46.086-46.085v16.171l-38 37.999zm-67.914-8.086 38-37.999 8.086 8.085-46.086 46.085zm0 19 47.5-47.5 8.086 8.086-55.586 55.586zm114-38v16.172l-38 38-17.586-17.586 8.086-8.086 9.5 9.5zm0 19v16.171l-20.414 20.415h-16.172zm-85.5 9.5 27.086 27.086h-16.172l-10.914-10.914-10.914 10.914h-16.172zm85.5 9.5v17.586h-17.586zm-65.086 8.086 8.086-8.086 17.585 17.586h-16.171zm-20.414 1.414 8.086 8.086h-16.171z" fill="url(#a)" fill-rule="evenodd"/>
</svg>
